<svg width="35" height="36" viewBox="0 0 35 36" fill="none" xmlns="http://www.w3.org/2000/svg">
<path d="M17.2836 0.696516C17.5665 0.535406 17.915 0.535406 18.1979 0.696516L32.5265 8.85667C32.8094 9.01778 32.9836 9.31553 32.9836 9.63775V25.9581C32.9836 26.2803 32.8094 26.578 32.5265 26.7391L18.1979 34.8993C17.915 35.0604 17.5665 35.0604 17.2836 34.8993L2.95507 26.7391C2.67218 26.578 2.49791 26.2803 2.49791 25.9581V9.63775C2.49791 9.31553 2.67218 9.01778 2.95507 8.85667L17.2836 0.696516Z" fill="#A37FCE"/>
<path d="M17.0942 1.0739C17.4513 0.721686 18.0302 0.721686 18.3873 1.0739L34.6952 17.1602C35.0523 17.5124 35.0523 18.0834 34.6952 18.4356L18.3873 34.5219C18.0302 34.8741 17.4513 34.8741 17.0942 34.5219L0.786357 18.4356C0.429287 18.0834 0.429287 17.5124 0.786357 17.1602L17.0942 1.0739Z" fill="#9760A8"/>
<path d="M16.9489 1.78902C17.3009 1.18775 18.1807 1.18775 18.5326 1.78902L32.1918 25.1259C32.5437 25.7272 32.1038 26.4788 31.4 26.4788H4.08158C3.37773 26.4788 2.93782 25.7272 3.28974 25.1259L16.9489 1.78902Z" fill="#452E51"/>
</svg>
