<svg width="35" height="35" viewBox="0 0 35 35" fill="none" xmlns="http://www.w3.org/2000/svg">
<path d="M17.2836 0.116683C17.5665 -0.044428 17.915 -0.044428 18.1979 0.116682L32.5265 8.27684C32.8094 8.43795 32.9836 8.73569 32.9836 9.05791V25.3782C32.9836 25.7005 32.8094 25.9982 32.5265 26.1593L18.1979 34.3195C17.915 34.4806 17.5665 34.4806 17.2836 34.3195L2.95507 26.1593C2.67218 25.9982 2.49791 25.7005 2.49791 25.3782V9.05791C2.49791 8.73569 2.67218 8.43795 2.95507 8.27684L17.2836 0.116683Z" fill="#FF7474"/>
<path d="M17.0942 0.494069C17.4513 0.141852 18.0302 0.141852 18.3873 0.49407L34.6952 16.5803C35.0523 16.9325 35.0523 17.5036 34.6952 17.8558L18.3873 33.9421C18.0302 34.2943 17.4513 34.2943 17.0942 33.9421L0.786357 17.8558C0.429287 17.5036 0.429287 16.9325 0.786357 16.5803L17.0942 0.494069Z" fill="#DE3838"/>
<path d="M16.9489 1.20919C17.3009 0.607915 18.1807 0.607915 18.5326 1.20919L32.1918 24.5461C32.5437 25.1474 32.1038 25.8989 31.4 25.8989H4.08158C3.37773 25.8989 2.93782 25.1474 3.28974 24.5461L16.9489 1.20919Z" fill="#C83131"/>
</svg>
