<svg width="670" height="671" viewBox="0 0 670 671" fill="none" xmlns="http://www.w3.org/2000/svg">
<rect width="670" height="671" rx="335" fill="#F8F8F8"/>
<rect x="102" y="103" width="466" height="465" rx="103" fill="#EBF5EE"/>
<path d="M238.851 418V415.854H254.515C256.518 415.854 258.306 415.568 259.88 414.996C261.597 414.424 262.956 413.208 263.957 411.348C264.958 409.488 265.459 406.699 265.459 402.979V280.023C265.459 276.16 264.958 273.299 263.957 271.44C262.956 269.58 261.597 268.364 259.88 267.792C258.306 267.219 256.518 266.933 254.515 266.933H238.851V264.787H297.432L341.851 381.735L378.33 264.787H431.117V266.933H422.105C420.102 266.933 418.242 267.291 416.526 268.006C414.809 268.578 413.45 269.866 412.449 271.869C411.59 273.728 411.161 276.733 411.161 280.881V401.906C411.161 405.912 411.59 408.916 412.449 410.919C413.45 412.922 414.809 414.281 416.526 414.996C418.242 415.568 420.102 415.854 422.105 415.854H431.117V418H362.451V415.854H364.597C367.601 415.854 370.104 415.568 372.107 414.996C374.11 414.424 375.612 413.279 376.613 411.562C377.615 409.846 378.115 407.271 378.115 403.837V272.727L332.624 418H322.324L267.605 273.8V401.906C267.605 405.912 268.177 408.916 269.322 410.919C270.609 412.922 272.469 414.281 274.901 414.996C277.333 415.568 280.194 415.854 283.484 415.854H292.067V418H238.851Z" fill="#2C423F"/>
</svg>
