<svg width="35" height="35" viewBox="0 0 35 35" fill="none" xmlns="http://www.w3.org/2000/svg">
<path d="M17.2836 0.398665C17.5665 0.237554 17.915 0.237554 18.1979 0.398665L32.5265 8.55882C32.8094 8.71993 32.9836 9.01768 32.9836 9.3399V25.6602C32.9836 25.9824 32.8094 26.2802 32.5265 26.4413L18.1979 34.6014C17.915 34.7626 17.5665 34.7626 17.2836 34.6014L2.95507 26.4413C2.67218 26.2802 2.49791 25.9824 2.49791 25.6602V9.3399C2.49791 9.01768 2.67218 8.71993 2.95507 8.55882L17.2836 0.398665Z" fill="#48CAE4"/>
<path d="M17.0942 0.776052C17.4513 0.423834 18.0302 0.423835 18.3873 0.776052L34.6952 16.8623C35.0523 17.2145 35.0523 17.7856 34.6952 18.1378L18.3873 34.2241C18.0302 34.5763 17.4513 34.5763 17.0942 34.2241L0.786357 18.1378C0.429287 17.7856 0.429287 17.2145 0.786357 16.8623L17.0942 0.776052Z" fill="#0077B6"/>
<path d="M16.9489 1.49117C17.3009 0.889897 18.1807 0.889897 18.5326 1.49117L32.1918 24.8281C32.5437 25.4293 32.1038 26.1809 31.4 26.1809H4.08158C3.37773 26.1809 2.93782 25.4293 3.28974 24.8281L16.9489 1.49117Z" fill="#023E8A"/>
</svg>
